<svg width="220" height="110" viewBox="0 0 220 110" fill="none" xmlns="http://www.w3.org/2000/svg">
<path d="M110.008 110C124.594 110 138.582 104.205 148.896 93.891C159.21 83.5766 165.005 69.5872 165.005 55.0005C165.005 40.4138 159.21 26.4244 148.896 16.11C138.582 5.79568 124.594 0.000976563 110.008 0.000976563V27.1637C117.39 27.1637 124.47 30.0966 129.691 35.3171C134.911 40.5376 137.844 47.6176 137.844 55.0005C137.844 62.3834 134.911 69.4635 129.691 74.6839C124.47 79.9044 117.39 82.8373 110.008 82.8373V110Z" fill="white"/>
<path d="M165.004 110C179.59 110 193.579 104.205 203.893 93.891C214.206 83.5766 220.001 69.5872 220.001 55.0005C220.001 40.4138 214.206 26.4244 203.893 16.11C193.579 5.79568 179.59 0.000976563 165.004 0.000976563V27.1637C172.386 27.1637 179.467 30.0966 184.687 35.3171C189.907 40.5376 192.84 47.6176 192.84 55.0005C192.84 62.3834 189.907 69.4635 184.687 74.6839C179.467 79.9044 172.386 82.8373 165.004 82.8373V110Z" fill="white"/>
<path d="M54.9969 0C44.1196 0 33.4864 3.22556 24.4422 9.26895C15.398 15.3123 8.34894 23.9021 4.18635 33.9519C0.0237617 44.0017 -1.06527 55.0608 1.0568 65.7296C3.17887 76.3984 8.41665 86.1982 16.1081 93.89C23.7996 101.582 33.5992 106.82 44.2676 108.942C54.9359 111.065 65.9941 109.975 76.0435 105.812C86.0928 101.65 94.6822 94.6004 100.725 85.5558C106.768 76.5112 109.994 65.8773 109.994 54.9995C109.994 40.4128 104.2 26.4234 93.8858 16.1091C83.5718 5.79471 69.583 0 54.9969 0ZM54.9969 82.8363C49.4915 82.8363 44.1098 81.2042 39.5322 78.1454C34.9546 75.0866 31.3868 70.7392 29.2799 65.6527C27.1731 60.5661 26.6218 54.9684 27.6958 49.5686C28.7699 44.1687 31.4209 39.2092 35.3138 35.3161C39.2068 31.423 44.1668 28.7711 49.5665 27.697C54.9661 26.6229 60.5631 27.174 65.6494 29.2809C70.7358 31.3879 75.083 34.9558 78.1416 39.5336C81.2003 44.1114 82.8329 49.4939 82.8329 54.9995C82.8329 62.3824 79.9003 69.4625 74.68 74.6829C69.4598 79.9034 62.3795 82.8363 54.9969 82.8363Z" fill="white"/>
</svg>
